<mxfile host="app.diagrams.net" modified="2021-10-28T20:54:55.785Z" agent="5.0 (Windows NT 10.0; Win64; x64) AppleWebKit/537.36 (KHTML, like Gecko) Chrome/95.0.4638.54 Safari/537.36" etag="t68IuqVTSXrbYY0YxILR" version="15.5.8" type="github">
  <diagram id="sFd8a2O6-MpDUsLX3lZi" name="Page-1">
    <mxGraphModel dx="1422" dy="762" grid="1" gridSize="10" guides="1" tooltips="1" connect="1" arrows="1" fold="1" page="1" pageScale="1" pageWidth="850" pageHeight="1100" math="0" shadow="0">
      <root>
        <mxCell id="0" />
        <mxCell id="1" parent="0" />
        <mxCell id="4tLBWfKw6hsVHIOpXlAL-27" style="edgeStyle=orthogonalEdgeStyle;rounded=0;orthogonalLoop=1;jettySize=auto;html=1;exitX=1;exitY=0.5;exitDx=0;exitDy=0;" edge="1" parent="1" source="4tLBWfKw6hsVHIOpXlAL-24" target="4tLBWfKw6hsVHIOpXlAL-26">
          <mxGeometry relative="1" as="geometry" />
        </mxCell>
        <mxCell id="4tLBWfKw6hsVHIOpXlAL-15" style="edgeStyle=orthogonalEdgeStyle;rounded=0;orthogonalLoop=1;jettySize=auto;html=1;exitX=1;exitY=0.3333333333333333;exitDx=0;exitDy=0;exitPerimeter=0;entryX=0;entryY=0.5;entryDx=0;entryDy=0;" edge="1" parent="1" source="6VPgUzRO6D01RCAoHINE-1" target="6VPgUzRO6D01RCAoHINE-9">
          <mxGeometry relative="1" as="geometry" />
        </mxCell>
        <mxCell id="6VPgUzRO6D01RCAoHINE-1" value="Admin" style="shape=umlActor;verticalLabelPosition=bottom;verticalAlign=top;html=1;outlineConnect=0;" parent="1" vertex="1">
          <mxGeometry x="110" y="50" width="30" height="60" as="geometry" />
        </mxCell>
        <mxCell id="6VPgUzRO6D01RCAoHINE-9" value="Configure&lt;br&gt;recommendation parameters" style="ellipse;whiteSpace=wrap;html=1;verticalAlign=top;" parent="1" vertex="1">
          <mxGeometry x="290" y="40" width="120" height="60" as="geometry" />
        </mxCell>
        <mxCell id="4tLBWfKw6hsVHIOpXlAL-6" style="edgeStyle=orthogonalEdgeStyle;rounded=0;orthogonalLoop=1;jettySize=auto;html=1;exitX=1;exitY=0.5;exitDx=0;exitDy=0;" edge="1" parent="1" source="4tLBWfKw6hsVHIOpXlAL-1" target="4tLBWfKw6hsVHIOpXlAL-3">
          <mxGeometry relative="1" as="geometry" />
        </mxCell>
        <mxCell id="4tLBWfKw6hsVHIOpXlAL-9" style="edgeStyle=orthogonalEdgeStyle;rounded=0;orthogonalLoop=1;jettySize=auto;html=1;exitX=0.5;exitY=1;exitDx=0;exitDy=0;entryX=0.5;entryY=0;entryDx=0;entryDy=0;" edge="1" parent="1" source="4tLBWfKw6hsVHIOpXlAL-1" target="4tLBWfKw6hsVHIOpXlAL-4">
          <mxGeometry relative="1" as="geometry" />
        </mxCell>
        <mxCell id="4tLBWfKw6hsVHIOpXlAL-10" style="edgeStyle=orthogonalEdgeStyle;rounded=0;orthogonalLoop=1;jettySize=auto;html=1;exitX=1;exitY=0.75;exitDx=0;exitDy=0;entryX=0;entryY=0.5;entryDx=0;entryDy=0;" edge="1" parent="1" source="4tLBWfKw6hsVHIOpXlAL-1" target="4tLBWfKw6hsVHIOpXlAL-5">
          <mxGeometry relative="1" as="geometry" />
        </mxCell>
        <mxCell id="4tLBWfKw6hsVHIOpXlAL-25" style="edgeStyle=orthogonalEdgeStyle;rounded=0;orthogonalLoop=1;jettySize=auto;html=1;exitX=0.5;exitY=0;exitDx=0;exitDy=0;entryX=0.5;entryY=1;entryDx=0;entryDy=0;" edge="1" parent="1" source="4tLBWfKw6hsVHIOpXlAL-1" target="4tLBWfKw6hsVHIOpXlAL-24">
          <mxGeometry relative="1" as="geometry" />
        </mxCell>
        <mxCell id="4tLBWfKw6hsVHIOpXlAL-1" value="scheduler / orchestrator" style="rounded=1;whiteSpace=wrap;html=1;" vertex="1" parent="1">
          <mxGeometry x="112.5" y="545" width="110" height="50" as="geometry" />
        </mxCell>
        <mxCell id="4tLBWfKw6hsVHIOpXlAL-3" value="Weather api" style="rounded=1;whiteSpace=wrap;html=1;" vertex="1" parent="1">
          <mxGeometry x="442.5" y="540" width="120" height="60" as="geometry" />
        </mxCell>
        <mxCell id="4tLBWfKw6hsVHIOpXlAL-2" value="internet" style="ellipse;shape=cloud;whiteSpace=wrap;html=1;" vertex="1" parent="1">
          <mxGeometry x="260" y="450" width="140" height="160" as="geometry" />
        </mxCell>
        <mxCell id="4tLBWfKw6hsVHIOpXlAL-8" style="edgeStyle=orthogonalEdgeStyle;rounded=0;orthogonalLoop=1;jettySize=auto;html=1;" edge="1" parent="1" source="4tLBWfKw6hsVHIOpXlAL-4" target="4tLBWfKw6hsVHIOpXlAL-7">
          <mxGeometry relative="1" as="geometry" />
        </mxCell>
        <mxCell id="4tLBWfKw6hsVHIOpXlAL-4" value="recommendation engine" style="rounded=1;whiteSpace=wrap;html=1;" vertex="1" parent="1">
          <mxGeometry x="112.5" y="615" width="110" height="50" as="geometry" />
        </mxCell>
        <mxCell id="4tLBWfKw6hsVHIOpXlAL-5" value="image repo" style="rounded=1;whiteSpace=wrap;html=1;" vertex="1" parent="1">
          <mxGeometry x="442.5" y="635" width="120" height="50" as="geometry" />
        </mxCell>
        <mxCell id="4tLBWfKw6hsVHIOpXlAL-7" value="recommendation parameters" style="shape=cylinder3;whiteSpace=wrap;html=1;boundedLbl=1;backgroundOutline=1;size=15;" vertex="1" parent="1">
          <mxGeometry x="110" y="685" width="115" height="90" as="geometry" />
        </mxCell>
        <mxCell id="4tLBWfKw6hsVHIOpXlAL-18" value="" style="edgeStyle=orthogonalEdgeStyle;rounded=0;orthogonalLoop=1;jettySize=auto;html=1;" edge="1" parent="1" source="4tLBWfKw6hsVHIOpXlAL-16" target="4tLBWfKw6hsVHIOpXlAL-17">
          <mxGeometry relative="1" as="geometry" />
        </mxCell>
        <mxCell id="4tLBWfKw6hsVHIOpXlAL-16" value="Mom recommends&lt;br&gt;App" style="shape=umlActor;verticalLabelPosition=bottom;verticalAlign=top;html=1;outlineConnect=0;" vertex="1" parent="1">
          <mxGeometry x="110" y="160" width="30" height="60" as="geometry" />
        </mxCell>
        <mxCell id="4tLBWfKw6hsVHIOpXlAL-17" value="Notify weather recommendation" style="ellipse;whiteSpace=wrap;html=1;verticalAlign=top;" vertex="1" parent="1">
          <mxGeometry x="290" y="160" width="120" height="60" as="geometry" />
        </mxCell>
        <mxCell id="4tLBWfKw6hsVHIOpXlAL-23" value="" style="edgeStyle=orthogonalEdgeStyle;rounded=0;orthogonalLoop=1;jettySize=auto;html=1;" edge="1" parent="1" source="4tLBWfKw6hsVHIOpXlAL-19" target="4tLBWfKw6hsVHIOpXlAL-22">
          <mxGeometry relative="1" as="geometry" />
        </mxCell>
        <mxCell id="4tLBWfKw6hsVHIOpXlAL-19" value="App user" style="shape=umlActor;verticalLabelPosition=bottom;verticalAlign=top;html=1;outlineConnect=0;" vertex="1" parent="1">
          <mxGeometry x="110" y="280" width="30" height="60" as="geometry" />
        </mxCell>
        <mxCell id="4tLBWfKw6hsVHIOpXlAL-22" value="Receive weather recommendations" style="ellipse;whiteSpace=wrap;html=1;verticalAlign=top;" vertex="1" parent="1">
          <mxGeometry x="290" y="280" width="120" height="60" as="geometry" />
        </mxCell>
        <mxCell id="4tLBWfKw6hsVHIOpXlAL-24" value="notification engine" style="rounded=1;whiteSpace=wrap;html=1;" vertex="1" parent="1">
          <mxGeometry x="112.5" y="450" width="110" height="50" as="geometry" />
        </mxCell>
        <mxCell id="4tLBWfKw6hsVHIOpXlAL-26" value="Weather Notification" style="sketch=0;outlineConnect=0;fontColor=#232F3E;gradientColor=none;fillColor=#232F3E;strokeColor=none;dashed=0;verticalLabelPosition=bottom;verticalAlign=top;align=center;html=1;fontSize=12;fontStyle=0;aspect=fixed;pointerEvents=1;shape=mxgraph.aws4.email_2;" vertex="1" parent="1">
          <mxGeometry x="470" y="451" width="78" height="49" as="geometry" />
        </mxCell>
      </root>
    </mxGraphModel>
  </diagram>
</mxfile>
